<svg width="512" height="512" version="1.1" xmlns="http://www.w3.org/2000/svg" desc="Created with imagetracer.js version 1.2.6" ><path fill="rgb(194,217,247)" stroke="rgb(194,217,247)" stroke-width="1" opacity="0.8235294117647058" d="M 229.5 0 L 238 0.5 L 229.5 1 L 229.5 0 Z " /><path fill="rgb(194,217,247)" stroke="rgb(194,217,247)" stroke-width="1" opacity="0.8235294117647058" d="M 261.5 0 L 269 0.5 L 261.5 1 L 261.5 0 Z " /><path fill="rgb(194,217,247)" stroke="rgb(194,217,247)" stroke-width="1" opacity="0.8235294117647058" d="M 221.5 1 L 228 1.5 L 221.5 2 L 221.5 1 Z " /><path fill="rgb(194,217,247)" stroke="rgb(194,217,247)" stroke-width="1" opacity="0.8235294117647058" d="M 272.5 1 L 277 1.5 L 272.5 2 L 272.5 1 Z " /><path fill="rgb(194,217,247)" stroke="rgb(194,217,247)" stroke-width="1" opacity="0.8235294117647058" d="M 214.5 2 L 220 2.5 L 214.5 3 L 214.5 2 Z " /><path fill="rgb(194,217,247)" stroke="rgb(194,217,247)" stroke-width="1" opacity="0.8235294117647058" d="M 280.5 2 L 284 2.5 L 280.5 3 L 280.5 2 Z " /><path fill="rgb(194,217,247)" stroke="rgb(194,217,247)" stroke-width="1" opacity="0.8235294117647058" d="M 209.5 3 L 213 3.5 L 209.5 4 L 209.5 3 Z " /><path fill="rgb(194,217,247)" stroke="rgb(194,217,247)" stroke-width="1" opacity="0.8235294117647058" d="M 286.5 3 L 289 3.5 L 286.5 4 L 286.5 3 Z " /><path fill="rgb(194,217,247)" stroke="rgb(194,217,247)" stroke-width="1" opacity="0.8235294117647058" d="M 204.5 4 L 207 4.5 L 204.5 5 L 204.5 4 Z " /><path fill="rgb(194,217,247)" stroke="rgb(194,217,247)" stroke-width="1" opacity="0.8235294117647058" d="M 291.5 4 L 294 4.5 L 291.5 5 L 291.5 4 Z " /><path fill="rgb(194,217,247)" stroke="rgb(194,217,247)" stroke-width="1" opacity="0.8235294117647058" d="M 200.5 5 L 203 5.5 L 200.5 6 L 200.5 5 Z " /><path fill="rgb(194,217,247)" stroke="rgb(194,217,247)" stroke-width="1" opacity="0.8235294117647058" d="M 295.5 5 L 298 5.5 L 295.5 6 L 295.5 5 Z " /><path fill="rgb(194,217,247)" stroke="rgb(194,217,247)" stroke-width="1" opacity="0.8235294117647058" d="M 299.5 6 L 302 6.5 L 299.5 7 L 299.5 6 Z " /><path fill="rgb(194,217,247)" stroke="rgb(194,217,247)" stroke-width="1" opacity="0.8235294117647058" d="M 303.5 7 L 306 7.5 L 303.5 8 L 303.5 7 Z " /><path fill="rgb(194,217,247)" stroke="rgb(194,217,247)" stroke-width="1" opacity="0.8235294117647058" d="M 319.5 12 L 323 13.5 L 321.5 14 L 319.5 12 Z " /><path fill="rgb(194,217,247)" stroke="rgb(194,217,247)" stroke-width="1" opacity="0.8235294117647058" d="M 324.5 14 L 328 15.5 L 326.5 16 L 324.5 14 Z " /><path fill="rgb(194,217,247)" stroke="rgb(194,217,247)" stroke-width="1" opacity="0.8235294117647058" d="M 331.5 17 L 348 25.5 L 346.5 25 L 331.5 18 L 331.5 17 Z " /><path fill="rgb(194,217,247)" stroke="rgb(194,217,247)" stroke-width="1" opacity="0.8235294117647058" d="M 163.5 18 L 165 18.5 L 160.5 21 L 161.5 19 L 163.5 18 Z " /><path fill="rgb(194,217,247)" stroke="rgb(194,217,247)" stroke-width="1" opacity="0.8235294117647058" d="M 155.5 22 L 157 22.5 L 152.5 25 L 153.5 23 L 155.5 22 Z " /><path fill="rgb(194,217,247)" stroke="rgb(194,217,247)" stroke-width="1" opacity="0.8235294117647058" d="M 148.5 26 L 147.5 28 L 145.5 29 L 146.5 27 L 148.5 26 Z " /><path fill="rgb(194,217,247)" stroke="rgb(194,217,247)" stroke-width="1" opacity="0.8235294117647058" d="M 349.5 26 L 358 31.5 L 356.5 31 L 350.5 28 L 349.5 26 Z " /><path fill="rgb(194,217,247)" stroke="rgb(194,217,247)" stroke-width="1" opacity="0.8235294117647058" d="M 143.5 29 L 142.5 31 L 143.5 29 Z " /><path fill="rgb(194,217,247)" stroke="rgb(194,217,247)" stroke-width="1" opacity="0.8235294117647058" d="M 140.5 31 L 139.5 33 L 133.5 37 L 135.5 34 L 140.5 31 Z " /><path fill="rgb(194,217,247)" stroke="rgb(194,217,247)" stroke-width="1" opacity="0.8235294117647058" d="M 359.5 32 L 364 35.5 L 361.5 34 L 359.5 32 Z " /><path fill="rgb(194,217,247)" stroke="rgb(194,217,247)" stroke-width="1" opacity="0.8235294117647058" d="M 365.5 36 Q 384.1 48.9 399 65.5 L 384.5 52 L 367.5 39 L 365.5 36 Z " /><path fill="rgb(194,217,247)" stroke="rgb(194,217,247)" stroke-width="1" opacity="0.8235294117647058" d="M 131.5 37 L 130.5 39 L 131.5 37 Z " /><path fill="rgb(194,217,247)" stroke="rgb(194,217,247)" stroke-width="1" opacity="0.8235294117647058" d="M 128.5 39 L 125.5 43 L 124 42.5 L 128.5 39 Z " /><path fill="rgb(194,217,247)" stroke="rgb(194,217,247)" stroke-width="1" opacity="0.8235294117647058" d="M 84.5 41 Q 90.8 39.8 92 43.5 L 104.5 59 L 106.5 58 L 105.5 60 Q 102.2 61.1 103 58.5 L 88.5 42 Q 82.8 41.3 82 45.5 Q 75.8 56.3 66.5 64 L 52 74 L 51 77.5 L 52 80 Q 65.8 86.7 75 99.5 L 74.5 101 L 63.5 89 L 51 79.5 L 50 76.5 L 53.5 72 Q 67.4 63.9 77 51.5 L 84.5 41 Z " /><path fill="rgb(194,217,247)" stroke="rgb(194,217,247)" stroke-width="1" opacity="0.8235294117647058" d="M 399.5 67 L 404.5 73 L 399.5 67 Z " /><path fill="rgb(194,217,247)" stroke="rgb(194,217,247)" stroke-width="1" opacity="0.8235294117647058" d="M 405.5 74 L 420.5 94 L 432.5 79 Q 438 78 439 81.5 L 449.5 95 L 465 107.5 L 464.5 110 L 461.5 105 L 442 88.5 L 435.5 80 Q 430.5 79.5 430 83.5 L 420.5 95 L 405.5 74 Z " /><path fill="rgb(194,217,247)" stroke="rgb(194,217,247)" stroke-width="1" opacity="0.8235294117647058" d="M 73.5 102 L 73 103.5 L 68.5 112 L 69 110.5 L 73.5 102 Z " /><path fill="rgb(194,217,247)" stroke="rgb(194,217,247)" stroke-width="1" opacity="0.8235294117647058" d="M 461.5 112 L 459.5 115 L 444 128.5 L 439.5 135 L 439 133.5 L 453.5 118 L 461.5 112 Z " /><path fill="rgb(194,217,247)" stroke="rgb(194,217,247)" stroke-width="1" opacity="0.8235294117647058" d="M 67.5 113 L 68 114.5 L 66.5 117 L 66 115.5 L 67.5 113 Z " /><path fill="rgb(194,217,247)" stroke="rgb(194,217,247)" stroke-width="1" opacity="0.8235294117647058" d="M 56.5 141 L 57 143.5 L 55.5 147 L 55 144.5 L 56.5 141 Z " /><path fill="rgb(194,217,247)" stroke="rgb(194,217,247)" stroke-width="1" opacity="0.8235294117647058" d="M 54.5 148 L 55 150.5 L 52.5 159 L 52 155.5 L 54.5 148 Z " /><path fill="rgb(194,217,247)" stroke="rgb(194,217,247)" stroke-width="1" opacity="0.8235294117647058" d="M 445.5 154 L 446 156.5 L 445 156.5 L 445.5 154 Z " /><path fill="rgb(194,217,247)" stroke="rgb(194,217,247)" stroke-width="1" opacity="0.8235294117647058" d="M 51.5 160 L 52 164.5 L 50.5 170 L 50 165.5 L 51.5 160 Z " /><path fill="rgb(194,217,247)" stroke="rgb(194,217,247)" stroke-width="1" opacity="0.8235294117647058" d="M 447.5 163 L 448 165.5 L 447 165.5 L 447.5 163 Z " /><path fill="rgb(194,217,247)" stroke="rgb(194,217,247)" stroke-width="1" opacity="0.8235294117647058" d="M 448.5 169 L 449 172.5 L 448 172.5 L 448.5 169 Z " /><path fill="rgb(194,217,247)" stroke="rgb(194,217,247)" stroke-width="1" opacity="0.8235294117647058" d="M 49.5 171 L 50 177.5 L 49 177.5 L 49.5 171 Z " /><path fill="rgb(194,217,247)" stroke="rgb(194,217,247)" stroke-width="1" opacity="0.8235294117647058" d="M 449.5 177 L 450 180.5 L 449 180.5 L 449.5 177 Z " /><path fill="rgb(194,217,247)" stroke="rgb(194,217,247)" stroke-width="1" opacity="0.8235294117647058" d="M 48.5 179 L 49 185.5 L 48 185.5 L 48.5 179 Z " /><path fill="rgb(194,217,247)" stroke="rgb(194,217,247)" stroke-width="1" opacity="0.8235294117647058" d="M 450.5 187 L 451 198.5 L 450 198.5 L 450.5 187 Z " /><path fill="rgb(194,217,247)" stroke="rgb(194,217,247)" stroke-width="1" opacity="0.8235294117647058" d="M 47.5 191 L 48 211.5 L 47 211.5 L 47.5 191 Z " /><path fill="rgb(194,217,247)" stroke="rgb(194,217,247)" stroke-width="1" opacity="0.8235294117647058" d="M 450.5 204 L 451 214.5 L 450 214.5 L 450.5 204 Z " /><path fill="rgb(194,217,247)" stroke="rgb(194,217,247)" stroke-width="1" opacity="0.8235294117647058" d="M 48.5 216 L 49 223.5 L 48 223.5 L 48.5 216 Z " /><path fill="rgb(194,217,247)" stroke="rgb(194,217,247)" stroke-width="1" opacity="0.8235294117647058" d="M 449.5 222 L 450 225.5 L 449 225.5 L 449.5 222 Z " /><path fill="rgb(194,217,247)" stroke="rgb(194,217,247)" stroke-width="1" opacity="0.8235294117647058" d="M 49.5 226 L 50 231.5 L 49 231.5 L 49.5 226 Z " /><path fill="rgb(194,217,247)" stroke="rgb(194,217,247)" stroke-width="1" opacity="0.8235294117647058" d="M 448.5 230 L 449 232.5 L 448 232.5 L 448.5 230 Z " /><path fill="rgb(194,217,247)" stroke="rgb(194,217,247)" stroke-width="1" opacity="0.8235294117647058" d="M 50.5 234 L 51 237.5 L 50 237.5 L 50.5 234 Z " /><path fill="rgb(194,217,247)" stroke="rgb(194,217,247)" stroke-width="1" opacity="0.8235294117647058" d="M 447.5 236 L 448 238.5 L 447 238.5 L 447.5 236 Z " /><path fill="rgb(194,217,247)" stroke="rgb(194,217,247)" stroke-width="1" opacity="0.8235294117647058" d="M 51.5 239 L 52 242.5 L 51 242.5 L 51.5 239 Z " /><path fill="rgb(194,217,247)" stroke="rgb(194,217,247)" stroke-width="1" opacity="0.8235294117647058" d="M 52.5 244 L 53 246.5 L 52 246.5 L 52.5 244 Z " /><path fill="rgb(194,217,247)" stroke="rgb(194,217,247)" stroke-width="1" opacity="0.8235294117647058" d="M 53.5 249 L 54 251.5 L 53 251.5 L 53.5 249 Z " /><path fill="rgb(194,217,247)" stroke="rgb(194,217,247)" stroke-width="1" opacity="0.8235294117647058" d="M 55.5 256 L 56 258.5 L 55 258.5 L 55.5 256 Z " /><path fill="rgb(194,217,247)" stroke="rgb(194,217,247)" stroke-width="1" opacity="0.8235294117647058" d="M 60.5 272 L 62 275.5 L 61 275.5 L 60.5 272 Z " /><path fill="rgb(194,217,247)" stroke="rgb(194,217,247)" stroke-width="1" opacity="0.8235294117647058" d="M 62.5 277 L 64 280.5 L 63 280.5 L 62.5 277 Z " /><path fill="rgb(194,217,247)" stroke="rgb(194,217,247)" stroke-width="1" opacity="0.8235294117647058" d="M 434.5 280 L 435 281.5 L 433.5 284 L 433 282.5 L 434.5 280 Z " /><path fill="rgb(194,217,247)" stroke="rgb(194,217,247)" stroke-width="1" opacity="0.8235294117647058" d="M 66.5 286 L 73 298.5 L 71 297.5 L 66 287.5 L 66.5 286 Z " /><path fill="rgb(194,217,247)" stroke="rgb(194,217,247)" stroke-width="1" opacity="0.8235294117647058" d="M 425.5 299 L 424.5 301 L 425.5 299 Z " /><path fill="rgb(194,217,247)" stroke="rgb(194,217,247)" stroke-width="1" opacity="0.8235294117647058" d="M 73.5 300 L 77 305.5 L 75 304.5 L 73.5 300 Z " /><path fill="rgb(194,217,247)" stroke="rgb(194,217,247)" stroke-width="1" opacity="0.8235294117647058" d="M 421.5 306 L 420.5 308 L 421.5 306 Z " /><path fill="rgb(194,217,247)" stroke="rgb(194,217,247)" stroke-width="1" opacity="0.8235294117647058" d="M 77.5 307 L 78.5 309 L 77.5 307 Z " /><path fill="rgb(194,217,247)" stroke="rgb(194,217,247)" stroke-width="1" opacity="0.8235294117647058" d="M 419.5 309 L 418.5 311 L 419.5 309 Z " /><path fill="rgb(194,217,247)" stroke="rgb(194,217,247)" stroke-width="1" opacity="0.8235294117647058" d="M 79.5 310 L 85 317.5 L 82 315.5 L 79.5 310 Z " /><path fill="rgb(194,217,247)" stroke="rgb(194,217,247)" stroke-width="1" opacity="0.8235294117647058" d="M 417.5 312 L 417 313.5 L 414.5 317 L 416 314.5 L 417.5 312 Z " /><path fill="rgb(194,217,247)" stroke="rgb(194,217,247)" stroke-width="1" opacity="0.8235294117647058" d="M 413.5 318 L 412.5 320 L 413.5 318 Z " /><path fill="rgb(194,217,247)" stroke="rgb(194,217,247)" stroke-width="1" opacity="0.8235294117647058" d="M 85.5 319 Q 99.3 338.2 117 353.5 L 96 333.5 L 85.5 319 Z " /><path fill="rgb(194,217,247)" stroke="rgb(194,217,247)" stroke-width="1" opacity="0.8235294117647058" d="M 411.5 321 L 408.5 325 L 411.5 321 Z " /><path fill="rgb(194,217,247)" stroke="rgb(194,217,247)" stroke-width="1" opacity="0.8235294117647058" d="M 407.5 326 L 405.5 329 L 407.5 326 Z " /><path fill="rgb(194,217,247)" stroke="rgb(194,217,247)" stroke-width="1" opacity="0.8235294117647058" d="M 404.5 330 L 398.5 337 L 404.5 330 Z " /><path fill="rgb(194,217,247)" stroke="rgb(194,217,247)" stroke-width="1" opacity="0.8235294117647058" d="M 396.5 339 L 387.5 349 L 396.5 339 Z " /><path fill="rgb(194,217,247)" stroke="rgb(194,217,247)" stroke-width="1" opacity="0.8235294117647058" d="M 383.5 351 L 378.5 357 L 383.5 351 Z " /><path fill="rgb(194,217,247)" stroke="rgb(194,217,247)" stroke-width="1" opacity="0.8235294117647058" d="M 119.5 355 L 123.5 360 L 119.5 355 Z " /><path fill="rgb(194,217,247)" stroke="rgb(194,217,247)" stroke-width="1" opacity="0.8235294117647058" d="M 376.5 357 L 373.5 361 L 376.5 357 Z " /><path fill="rgb(194,217,247)" stroke="rgb(194,217,247)" stroke-width="1" opacity="0.8235294117647058" d="M 125.5 360 L 127.5 363 L 125.5 360 Z " /><path fill="rgb(194,217,247)" stroke="rgb(194,217,247)" stroke-width="1" opacity="0.8235294117647058" d="M 371.5 361 L 369.5 364 L 371.5 361 Z " /><path fill="rgb(194,217,247)" stroke="rgb(194,217,247)" stroke-width="1" opacity="0.8235294117647058" d="M 129.5 363 L 131.5 366 L 129.5 363 Z " /><path fill="rgb(194,217,247)" stroke="rgb(194,217,247)" stroke-width="1" opacity="0.8235294117647058" d="M 367.5 364 L 366.5 366 L 367.5 364 Z " /><path fill="rgb(194,217,247)" stroke="rgb(194,217,247)" stroke-width="1" opacity="0.8235294117647058" d="M 133.5 366 L 134.5 368 L 133.5 366 Z " /><path fill="rgb(194,217,247)" stroke="rgb(194,217,247)" stroke-width="1" opacity="0.8235294117647058" d="M 364.5 366 L 362.5 369 L 364.5 366 Z " /><path fill="rgb(194,217,247)" stroke="rgb(194,217,247)" stroke-width="1" opacity="0.8235294117647058" d="M 136.5 368 L 137.5 370 L 136.5 368 Z " /><path fill="rgb(194,217,247)" stroke="rgb(194,217,247)" stroke-width="1" opacity="0.8235294117647058" d="M 360.5 369 L 359.5 371 L 360.5 369 Z " /><path fill="rgb(194,217,247)" stroke="rgb(194,217,247)" stroke-width="1" opacity="0.8235294117647058" d="M 139.5 370 L 140.5 372 L 139.5 370 Z " /><path fill="rgb(142,182,246)" stroke="rgb(142,182,246)" stroke-width="1" opacity="0.9882352941176471" d="M 104.5 60 L 123 75.5 Q 123.8 81.3 119.5 82 Q 108.3 88.8 100 98.5 L 88.5 113 Q 83.8 113.8 83 110.5 Q 77 100 68 92.5 Q 89.4 91.9 98 78.5 Q 103.6 71.6 104.5 60 Z " /><path fill="rgb(142,182,246)" stroke="rgb(142,182,246)" stroke-width="1" opacity="0.9882352941176471" d="M 348.5 77 L 352 79.5 L 349.5 78 L 348.5 77 Z " /><path fill="rgb(142,182,246)" stroke="rgb(142,182,246)" stroke-width="1" opacity="0.9882352941176471" d="M 353.5 82 L 354.5 84 L 353.5 82 Z " /><path fill="rgb(142,182,246)" stroke="rgb(142,182,246)" stroke-width="1" opacity="0.9882352941176471" d="M 339.5 84 L 338.5 86 L 339.5 84 Z " /><path fill="rgb(142,182,246)" stroke="rgb(142,182,246)" stroke-width="1" opacity="0.9882352941176471" d="M 356.5 86 L 357.5 88 L 356.5 86 Z " /><path fill="rgb(142,182,246)" stroke="rgb(142,182,246)" stroke-width="1" opacity="0.9882352941176471" d="M 336.5 88 L 334.5 91 L 336.5 88 Z " /><path fill="rgb(142,182,246)" stroke="rgb(142,182,246)" stroke-width="1" opacity="0.9882352941176471" d="M 359.5 90 L 362.5 94 L 359.5 90 Z " /><path fill="rgb(142,182,246)" stroke="rgb(142,182,246)" stroke-width="1" opacity="0.9882352941176471" d="M 331.5 94 L 318.5 108 L 331.5 94 Z " /><path fill="rgb(142,182,246)" stroke="rgb(142,182,246)" stroke-width="1" opacity="0.9882352941176471" d="M 448.5 95 L 464 107.5 Q 464.8 111.3 462.5 112 Q 451 118.5 443 128.5 L 439 134.5 L 441 137.5 L 441 141.5 L 444 148.5 L 448 166.5 L 449 180.5 L 450 181.5 L 450 198.5 L 451 203.5 L 450 204.5 L 449 229.5 L 444 251.5 Q 446.5 253 443 254.5 Q 437.1 281.1 424 300.5 L 424.5 302 Q 422.3 301.3 423 303.5 Q 407.1 330.6 384.5 351 L 361.5 369 L 353.5 373 L 276.5 373 L 275.5 372 L 236 371.5 L 250.5 370 L 272.5 365 Q 297.8 357.8 318.5 346 Q 351.1 327.6 375 300.5 Q 399.1 273.9 413 238 Q 409.2 239 408 236.5 Q 400.9 224.6 390.5 216 L 378 206.5 L 378 204.5 L 382.5 200 L 388 196.5 L 386.5 194 L 395 201.5 L 411.5 221 L 416 218.5 Q 422.7 207.2 432.5 199 L 445 189.5 Q 446 185 443.5 184 L 424 168.5 L 428 170.5 L 429 155.5 Q 421.6 142.4 410.5 133 L 400 125.5 Q 399.3 120.8 402.5 120 L 409.5 115 L 411.5 115 L 418.5 121 L 425.5 121 Q 437.8 118.3 444 109.5 Q 448.4 104.4 448.5 95 Z " /><path fill="rgb(142,182,246)" stroke="rgb(142,182,246)" stroke-width="1" opacity="0.9882352941176471" d="M 372.5 103 L 376.5 108 L 372.5 103 Z " /><path fill="rgb(142,182,246)" stroke="rgb(142,182,246)" stroke-width="1" opacity="0.9882352941176471" d="M 313.5 111 L 312.5 113 L 313.5 111 Z " /><path fill="rgb(142,182,246)" stroke="rgb(142,182,246)" stroke-width="1" opacity="0.9882352941176471" d="M 381.5 111 L 382.5 113 L 381.5 111 Z " /><path fill="rgb(142,182,246)" stroke="rgb(142,182,246)" stroke-width="1" opacity="0.9882352941176471" d="M 309.5 114 L 308.5 116 L 309.5 114 Z " /><path fill="rgb(142,182,246)" stroke="rgb(142,182,246)" stroke-width="1" opacity="0.9882352941176471" d="M 385.5 114 L 386.5 116 L 385.5 114 Z " /><path fill="rgb(142,182,246)" stroke="rgb(142,182,246)" stroke-width="1" opacity="0.9882352941176471" d="M 302.5 119 L 301.5 121 L 302.5 119 Z " /><path fill="rgb(142,182,246)" stroke="rgb(142,182,246)" stroke-width="1" opacity="0.9882352941176471" d="M 392.5 119 L 393.5 121 L 392.5 119 Z " /><path fill="rgb(142,182,246)" stroke="rgb(142,182,246)" stroke-width="1" opacity="0.9882352941176471" d="M 394.5 122 L 395 124.5 L 394 124.5 L 394.5 122 Z " /><path fill="rgb(142,182,246)" stroke="rgb(142,182,246)" stroke-width="1" opacity="0.9882352941176471" d="M 307.5 131 L 309.5 134 L 307.5 131 Z " /><path fill="rgb(142,182,246)" stroke="rgb(142,182,246)" stroke-width="1" opacity="0.9882352941176471" d="M 311.5 134 L 313.5 137 L 311.5 134 Z " /><path fill="rgb(142,182,246)" stroke="rgb(142,182,246)" stroke-width="1" opacity="0.9882352941176471" d="M 383.5 134 L 382.5 136 L 383.5 134 Z " /><path fill="rgb(142,182,246)" stroke="rgb(142,182,246)" stroke-width="1" opacity="0.9882352941176471" d="M 316.5 138 L 330.5 153 L 316.5 138 Z " /><path fill="rgb(142,182,246)" stroke="rgb(142,182,246)" stroke-width="1" opacity="0.9882352941176471" d="M 378.5 138 L 376.5 141 L 378.5 138 Z " /><path fill="rgb(142,182,246)" stroke="rgb(142,182,246)" stroke-width="1" opacity="0.9882352941176471" d="M 363.5 153 L 360.5 157 L 363.5 153 Z " /><path fill="rgb(142,182,246)" stroke="rgb(142,182,246)" stroke-width="1" opacity="0.9882352941176471" d="M 414.5 155 L 415.5 157 L 414.5 155 Z " /><path fill="rgb(142,182,246)" stroke="rgb(142,182,246)" stroke-width="1" opacity="0.9882352941176471" d="M 333.5 156 L 335.5 159 L 333.5 156 Z " /><path fill="rgb(142,182,246)" stroke="rgb(142,182,246)" stroke-width="1" opacity="0.9882352941176471" d="M 408.5 157 L 407.5 159 L 408.5 157 Z " /><path fill="rgb(142,182,246)" stroke="rgb(142,182,246)" stroke-width="1" opacity="0.9882352941176471" d="M 416.5 158 L 417.5 160 L 416.5 158 Z " /><path fill="rgb(142,182,246)" stroke="rgb(142,182,246)" stroke-width="1" opacity="0.9882352941176471" d="M 358.5 159 L 356.5 162 L 358.5 159 Z " /><path fill="rgb(142,182,246)" stroke="rgb(142,182,246)" stroke-width="1" opacity="0.9882352941176471" d="M 406.5 160 L 404.5 163 L 406.5 160 Z " /><path fill="rgb(142,182,246)" stroke="rgb(142,182,246)" stroke-width="1" opacity="0.9882352941176471" d="M 337.5 161 L 338.5 163 L 337.5 161 Z " /><path fill="rgb(142,182,246)" stroke="rgb(142,182,246)" stroke-width="1" opacity="0.9882352941176471" d="M 419.5 162 L 422.5 166 L 419.5 162 Z " /><path fill="rgb(142,182,246)" stroke="rgb(142,182,246)" stroke-width="1" opacity="0.9882352941176471" d="M 403.5 164 L 390.5 178 L 403.5 164 Z " /><path fill="rgb(142,182,246)" stroke="rgb(142,182,246)" stroke-width="1" opacity="0.9882352941176471" d="M 340.5 165 L 341.5 167 L 340.5 165 Z " /><path fill="rgb(142,182,246)" stroke="rgb(142,182,246)" stroke-width="1" opacity="0.9882352941176471" d="M 352.5 167 L 349.5 171 L 352.5 167 Z " /><path fill="rgb(142,182,246)" stroke="rgb(142,182,246)" stroke-width="1" opacity="0.9882352941176471" d="M 387.5 179 L 385.5 182 L 387.5 179 Z " /><path fill="rgb(142,182,246)" stroke="rgb(142,182,246)" stroke-width="1" opacity="0.9882352941176471" d="M 383.5 182 L 382.5 184 L 383.5 182 Z " /><path fill="rgb(142,182,246)" stroke="rgb(142,182,246)" stroke-width="1" opacity="0.9882352941176471" d="M 379.5 188 L 381 190.5 L 379 189.5 L 379.5 188 Z " /><path fill="rgb(142,182,246)" stroke="rgb(142,182,246)" stroke-width="1" opacity="0.9882352941176471" d="M 383.5 192 L 384.5 194 L 383.5 192 Z " /><path fill="rgb(142,182,246)" stroke="rgb(142,182,246)" stroke-width="1" opacity="0.9882352941176471" d="M 109.5 345 L 125.5 354 L 155.5 365 L 177.5 370 L 192 371.5 L 144.5 373 Q 130.1 365.9 119.5 355 L 117 355 L 109.5 345 Z " /><path fill="rgb(0,0,0)" stroke="rgb(0,0,0)" stroke-width="1" opacity="0" d="M 0 0 L 229 0.5 Q 192.5 4 165.5 17 L 132.5 36 L 104.5 59 L 89.5 41 Q 84.3 39.8 83 42.5 Q 74.9 56.4 62.5 66 L 51 74.5 L 50 78.5 L 74 99.5 L 60 129.5 L 52 155.5 L 49 171.5 L 49 178.5 L 48 179.5 L 47 211.5 L 48 212.5 L 49 231.5 L 53 251.5 L 65 285.5 Q 84.5 327 117.5 355 L 140 371.5 Q 126.3 371.3 121 379.5 L 119 383.5 L 119 416.5 L 124.5 425 Q 129.3 429.5 139 428 L 122 497.5 L 122 505.5 L 126.5 511 L 128 511.5 L 0 512 L 0 0 Z " /><path fill="rgb(0,0,0)" stroke="rgb(0,0,0)" stroke-width="1" opacity="0" d="M 269.5 0 L 512 0 L 512 512 L 371 511.5 L 375 508.5 Q 377.8 505.8 377 499.5 L 360 428 Q 372.5 429.3 377 421.5 L 380 413.5 L 380 386.5 Q 378.4 377.6 371.5 374 Q 366.3 371.3 358 371.5 Q 380 358 397 339.5 Q 423.7 311.2 439 271.5 L 445 252.5 L 449 232.5 L 450 215.5 L 451 214.5 L 451 187.5 L 450 186.5 L 450 177.5 L 449 176.5 L 448 163.5 L 440 133.5 L 453.5 119 L 464 111.5 L 465 107.5 L 442 86.5 L 436.5 79 Q 431 78 430 81.5 L 420.5 94 Q 405.4 69.6 384.5 51 Q 361.3 29.7 330.5 16 L 305.5 7 L 289.5 3 L 284.5 3 L 277.5 1 L 269.5 1 L 269.5 0 Z " /><path fill="rgb(231,242,254)" stroke="rgb(231,242,254)" stroke-width="1" opacity="0.9882352941176471" d="M 213.5 3 L 220.5 4 L 232 11.5 Q 238.8 17.7 237 32.5 Q 234.2 41.2 227.5 46 L 221.5 49 L 194.5 56 L 171.5 67 Q 147.5 81.5 130 102.5 L 116 121.5 L 105 143.5 L 101 155.5 L 94.5 163 Q 89.1 167.6 79.5 168 L 67.5 164 L 61 157.5 L 58 151.5 L 56 140.5 L 58 140 Q 59.7 128.9 65 120.5 L 64.5 119 L 66 118.5 L 65.5 117 Q 67.8 117.8 67 115.5 L 74 101 L 77 102.5 L 84.5 113 Q 90.8 114.3 92 110.5 Q 99.7 96.2 112.5 87 L 123 79.5 L 124 76.5 L 121.5 73 Q 112.1 68.4 106 60.5 L 107 57 Q 109.7 58.1 109 55.5 L 119.5 46 L 132 37.5 L 132.5 36 Q 134 38.5 135.5 35 L 141 31.5 L 141.5 30 Q 143 32.5 144.5 29 L 151 26 L 151.5 24 L 153.5 24 L 157 23 L 157.5 21 L 159 21.5 L 159.5 20 L 161.5 20 L 165 19 L 165.5 17 L 167.5 17 L 172 16 L 172.5 14 L 174.5 14 Q 177.8 15.1 177 12.5 L 179.5 12 L 187.5 10 L 189.5 8 L 193.5 8 L 196.5 6 L 198.5 7 L 213.5 3 Z " /><path fill="rgb(231,242,254)" stroke="rgb(231,242,254)" stroke-width="1" opacity="0.9882352941176471" d="M 448.5 93 L 449.5 95 L 448.5 93 Z " /><path fill="rgb(203,225,254)" stroke="rgb(203,225,254)" stroke-width="1" opacity="0.996078431372549" d="M 302.5 25 L 303.5 27 L 302.5 25 Z " /><path fill="rgb(203,225,254)" stroke="rgb(203,225,254)" stroke-width="1" opacity="0.996078431372549" d="M 305.5 27 L 306.5 29 L 305.5 27 Z " /><path fill="rgb(203,225,254)" stroke="rgb(203,225,254)" stroke-width="1" opacity="0.996078431372549" d="M 308.5 29 L 309.5 31 L 308.5 29 Z " /><path fill="rgb(203,225,254)" stroke="rgb(203,225,254)" stroke-width="1" opacity="0.996078431372549" d="M 316.5 35 L 317.5 37 L 316.5 35 Z " /><path fill="rgb(203,225,254)" stroke="rgb(203,225,254)" stroke-width="1" opacity="0.996078431372549" d="M 321.5 39 L 324.5 43 L 321.5 39 Z " /><path fill="rgb(203,225,254)" stroke="rgb(203,225,254)" stroke-width="1" opacity="0.996078431372549" d="M 337.5 55 L 339.5 58 L 337.5 55 Z " /><path fill="rgb(203,225,254)" stroke="rgb(203,225,254)" stroke-width="1" opacity="0.996078431372549" d="M 105.5 60 L 109.5 65 L 105.5 60 Z " /><path fill="rgb(203,225,254)" stroke="rgb(203,225,254)" stroke-width="1" opacity="0.996078431372549" d="M 343.5 62 L 344.5 64 L 343.5 62 Z " /><path fill="rgb(203,225,254)" stroke="rgb(203,225,254)" stroke-width="1" opacity="0.996078431372549" d="M 349.5 70 L 350.5 72 L 349.5 70 Z " /><path fill="rgb(203,225,254)" stroke="rgb(203,225,254)" stroke-width="1" opacity="0.996078431372549" d="M 121.5 73 L 122.5 75 L 121.5 73 Z " /><path fill="rgb(203,225,254)" stroke="rgb(203,225,254)" stroke-width="1" opacity="0.996078431372549" d="M 351.5 73 L 352.5 75 L 351.5 73 Z " /><path fill="rgb(203,225,254)" stroke="rgb(203,225,254)" stroke-width="1" opacity="0.996078431372549" d="M 122.5 79 L 121.5 81 L 122.5 79 Z " /><path fill="rgb(203,225,254)" stroke="rgb(203,225,254)" stroke-width="1" opacity="0.996078431372549" d="M 114.5 85 L 113.5 87 L 114.5 85 Z " /><path fill="rgb(203,225,254)" stroke="rgb(203,225,254)" stroke-width="1" opacity="0.996078431372549" d="M 336.5 87 L 335.5 89 L 336.5 87 Z " /><path fill="rgb(203,225,254)" stroke="rgb(203,225,254)" stroke-width="1" opacity="0.996078431372549" d="M 360.5 88 L 360.5 91 Q 357.5 89.5 360.5 88 Z " /><path fill="rgb(203,225,254)" stroke="rgb(203,225,254)" stroke-width="1" opacity="0.996078431372549" d="M 108.5 90 L 100.5 99 L 108.5 90 Z " /><path fill="rgb(203,225,254)" stroke="rgb(203,225,254)" stroke-width="1" opacity="0.996078431372549" d="M 332.5 92 L 330.5 95 L 332.5 92 Z " /><path fill="rgb(203,225,254)" stroke="rgb(203,225,254)" stroke-width="1" opacity="0.996078431372549" d="M 77.5 103 L 79.5 106 L 77.5 103 Z " /><path fill="rgb(203,225,254)" stroke="rgb(203,225,254)" stroke-width="1" opacity="0.996078431372549" d="M 96.5 103 L 95.5 105 L 96.5 103 Z " /><path fill="rgb(203,225,254)" stroke="rgb(203,225,254)" stroke-width="1" opacity="0.996078431372549" d="M 318.5 106 L 316.5 109 L 318.5 106 Z " /><path fill="rgb(203,225,254)" stroke="rgb(203,225,254)" stroke-width="1" opacity="0.996078431372549" d="M 93.5 107 L 92.5 109 L 93.5 107 Z " /><path fill="rgb(203,225,254)" stroke="rgb(203,225,254)" stroke-width="1" opacity="0.996078431372549" d="M 91.5 110 L 89.5 113 L 91.5 110 Z " /><path fill="rgb(203,225,254)" stroke="rgb(203,225,254)" stroke-width="1" opacity="0.996078431372549" d="M 83.5 111 L 84.5 113 L 83.5 111 Z " /><path fill="rgb(203,225,254)" stroke="rgb(203,225,254)" stroke-width="1" opacity="0.996078431372549" d="M 312.5 111 L 311.5 113 L 312.5 111 Z " /><path fill="rgb(203,225,254)" stroke="rgb(203,225,254)" stroke-width="1" opacity="0.996078431372549" d="M 300.5 135 L 299.5 137 L 300.5 135 Z " /><path fill="rgb(203,225,254)" stroke="rgb(203,225,254)" stroke-width="1" opacity="0.996078431372549" d="M 299.5 146 L 300.5 148 L 299.5 146 Z " /><path fill="rgb(203,225,254)" stroke="rgb(203,225,254)" stroke-width="1" opacity="0.996078431372549" d="M 302.5 148 L 303.5 150 L 302.5 148 Z " /><path fill="rgb(203,225,254)" stroke="rgb(203,225,254)" stroke-width="1" opacity="0.996078431372549" d="M 306.5 151 L 307.5 153 L 306.5 151 Z " /><path fill="rgb(203,225,254)" stroke="rgb(203,225,254)" stroke-width="1" opacity="0.996078431372549" d="M 377.5 153 L 376.5 155 L 377.5 153 Z " /><path fill="rgb(203,225,254)" stroke="rgb(203,225,254)" stroke-width="1" opacity="0.996078431372549" d="M 379.5 154 L 380 159.5 L 379 159.5 L 379.5 154 Z " /><path fill="rgb(203,225,254)" stroke="rgb(203,225,254)" stroke-width="1" opacity="0.996078431372549" d="M 311.5 155 L 313.5 158 L 311.5 155 Z " /><path fill="rgb(203,225,254)" stroke="rgb(203,225,254)" stroke-width="1" opacity="0.996078431372549" d="M 371.5 158 L 360.5 170 L 371.5 158 Z " /><path fill="rgb(203,225,254)" stroke="rgb(203,225,254)" stroke-width="1" opacity="0.996078431372549" d="M 327.5 171 L 329.5 174 L 327.5 171 Z " /><path fill="rgb(203,225,254)" stroke="rgb(203,225,254)" stroke-width="1" opacity="0.996078431372549" d="M 379.5 171 L 380 177.5 L 379 177.5 L 379.5 171 Z " /><path fill="rgb(203,225,254)" stroke="rgb(203,225,254)" stroke-width="1" opacity="0.996078431372549" d="M 332.5 177 L 333.5 179 L 332.5 177 Z " /><path fill="rgb(203,225,254)" stroke="rgb(203,225,254)" stroke-width="1" opacity="0.996078431372549" d="M 352.5 179 L 351.5 181 L 352.5 179 Z " /><path fill="rgb(203,225,254)" stroke="rgb(203,225,254)" stroke-width="1" opacity="0.996078431372549" d="M 335.5 181 L 336.5 183 L 335.5 181 Z " /><path fill="rgb(203,225,254)" stroke="rgb(203,225,254)" stroke-width="1" opacity="0.996078431372549" d="M 49.5 183 L 50 185.5 L 49 185.5 L 49.5 183 Z " /><path fill="rgb(203,225,254)" stroke="rgb(203,225,254)" stroke-width="1" opacity="0.996078431372549" d="M 378.5 185 L 379 187.5 L 378 187.5 L 378.5 185 Z " /><path fill="rgb(203,225,254)" stroke="rgb(203,225,254)" stroke-width="1" opacity="0.996078431372549" d="M 76.5 258 L 77.5 260 L 76.5 258 Z " /><path fill="rgb(203,225,254)" stroke="rgb(203,225,254)" stroke-width="1" opacity="0.996078431372549" d="M 81.5 265 L 82.5 267 L 81.5 265 Z " /><path fill="rgb(203,225,254)" stroke="rgb(203,225,254)" stroke-width="1" opacity="0.996078431372549" d="M 343.5 269 L 342.5 271 L 343.5 269 Z " /><path fill="rgb(203,225,254)" stroke="rgb(203,225,254)" stroke-width="1" opacity="0.996078431372549" d="M 85.5 270 L 86.5 272 L 85.5 270 Z " /><path fill="rgb(203,225,254)" stroke="rgb(203,225,254)" stroke-width="1" opacity="0.996078431372549" d="M 338.5 275 L 334.5 280 L 338.5 275 Z " /><path fill="rgb(203,225,254)" stroke="rgb(203,225,254)" stroke-width="1" opacity="0.996078431372549" d="M 90.5 276 L 102.5 289 L 90.5 276 Z " /><path fill="rgb(203,225,254)" stroke="rgb(203,225,254)" stroke-width="1" opacity="0.996078431372549" d="M 327.5 286 L 323.5 291 L 327.5 286 Z " /><path fill="rgb(203,225,254)" stroke="rgb(203,225,254)" stroke-width="1" opacity="0.996078431372549" d="M 108.5 293 L 109.5 295 L 108.5 293 Z " /><path fill="rgb(203,225,254)" stroke="rgb(203,225,254)" stroke-width="1" opacity="0.996078431372549" d="M 318.5 294 L 317.5 296 L 318.5 294 Z " /><path fill="rgb(203,225,254)" stroke="rgb(203,225,254)" stroke-width="1" opacity="0.996078431372549" d="M 113.5 297 L 114.5 299 L 113.5 297 Z " /><path fill="rgb(203,225,254)" stroke="rgb(203,225,254)" stroke-width="1" opacity="0.996078431372549" d="M 314.5 297 L 313.5 299 L 314.5 297 Z " /><path fill="rgb(203,225,254)" stroke="rgb(203,225,254)" stroke-width="1" opacity="0.996078431372549" d="M 310.5 300 L 309.5 302 L 310.5 300 Z " /><path fill="rgb(203,225,254)" stroke="rgb(203,225,254)" stroke-width="1" opacity="0.996078431372549" d="M 194.5 330 L 197 330.5 L 194.5 331 L 194.5 330 Z " /><path fill="rgb(203,225,254)" stroke="rgb(203,225,254)" stroke-width="1" opacity="0.996078431372549" d="M 205.5 331 L 223 331.5 L 205.5 332 L 205.5 331 Z " /><path fill="rgb(203,225,254)" stroke="rgb(203,225,254)" stroke-width="1" opacity="0.996078431372549" d="M 200.5 372 L 229 372.5 L 200.5 373 L 200.5 372 Z " /><path fill="rgb(203,225,255)" stroke="rgb(203,225,255)" stroke-width="1" opacity="1" d="M 229.5 1 L 240.5 2 L 258.5 6 L 285.5 16 Q 315.8 30.8 337 54.5 Q 352.4 71.1 363 92.5 L 361 91.5 L 352 78 Q 349.9 76.4 344.5 77 Q 333.6 93.1 319.5 106 L 300 121.5 Q 298.8 128.8 303.5 130 L 306 131.5 L 296 139.5 L 296 143.5 L 300.5 148 Q 315.8 157.2 327 170.5 L 340.5 188 L 343.5 189 L 348 187 Q 358.2 168.1 375.5 155 L 378.5 153 L 380 160.5 L 380 170.5 L 379 171.5 L 379 184.5 L 378 185.5 L 376 202.5 L 367 230.5 Q 352.7 263.2 328.5 286 Q 304.6 309.1 270.5 322 L 249.5 328 L 232.5 330 L 231.5 331 L 197.5 331 L 196.5 330 L 178.5 328 L 163.5 324 L 133.5 311 Q 106.4 295.6 87 272.5 Q 72.2 254.8 62 232.5 L 52 201.5 L 49 179.5 L 50 178.5 L 52 160.5 L 56.5 145 L 59 154.5 L 67.5 164 Q 72.9 167.6 81.5 168 L 91.5 165 L 99 158.5 L 109 134.5 L 122 112.5 L 150.5 82 L 171.5 67 Q 192.5 54 221.5 49 Q 228.9 46.4 233 40.5 Q 238.8 34.8 237 21.5 Q 234.8 13.8 229.5 9 L 220.5 4 L 215 3.5 L 229.5 1 Z " /><path fill="rgb(169,207,252)" stroke="rgb(169,207,252)" stroke-width="1" opacity="0.9921568627450981" d="M 238.5 0 L 260.5 0 L 261.5 1 L 271.5 1 L 272.5 2 L 285.5 3 L 306.5 8 L 328.5 16 Q 370.5 34.5 399 66.5 L 414 85.5 L 419 95 L 427 88.5 L 433.5 80 Q 438.5 79.5 439 83.5 L 448 94.5 L 448 100.5 Q 445.3 110.8 437.5 116 Q 431 121.5 418.5 121 L 411.5 115 L 409.5 115 L 400 122.5 Q 399.3 126.3 401.5 127 Q 412.5 133.1 420 142.5 L 427 151.5 Q 429.8 154.2 429 160.5 L 428 161.5 L 427.5 171 L 414.5 155 Q 408 154 407 158.5 L 404 163.5 L 388.5 179 L 379.5 186 L 379 178.5 L 380 177.5 L 380 154.5 L 377.5 153 L 360 169.5 L 345.5 188 L 339 187 Q 328.5 168.4 311.5 155 L 297 144.5 L 296 140.5 L 298.5 137 L 306 131.5 L 305.5 130 L 333 155.5 L 343 170 L 349.5 171 Q 360.8 154.3 375.5 141 L 394 126.5 L 395 122.5 L 392.5 119 Q 375.4 109.1 363 94.5 L 359 84.5 L 351 71.5 Q 338.1 53.4 321.5 39 Q 303.3 23.2 279.5 13 L 256.5 5 L 236 1.5 L 238.5 0 Z " /><path fill="rgb(169,207,252)" stroke="rgb(169,207,252)" stroke-width="1" opacity="0.9921568627450981" d="M 85.5 42 Q 91.3 41.3 92 45.5 L 103 58.5 L 104 64.5 Q 100.9 78.9 90.5 86 L 80.5 91 L 67.5 92 Q 61.3 84 52 80 L 51 76.5 L 52 74 Q 65.4 67.4 75 55.5 L 85.5 42 Z " /><path fill="rgb(169,207,252)" stroke="rgb(169,207,252)" stroke-width="1" opacity="0.9921568627450981" d="M 344.5 77 L 342.5 80 L 344.5 77 Z " /><path fill="rgb(169,207,252)" stroke="rgb(169,207,252)" stroke-width="1" opacity="0.9921568627450981" d="M 315.5 109 L 314.5 111 L 315.5 109 Z " /><path fill="rgb(169,207,252)" stroke="rgb(169,207,252)" stroke-width="1" opacity="0.9921568627450981" d="M 48 186 Q 51.5 184.9 50 192.5 L 55 214.5 L 67 243.5 Q 81.2 269.8 102.5 289 Q 126.1 310.9 159.5 323 L 187.5 330 L 204.5 331 L 205.5 332 L 222.5 332 L 223.5 331 L 233.5 331 L 255.5 327 L 283.5 317 Q 316.5 301.5 339 275.5 Q 355.3 257.3 366 233.5 L 374 211.5 L 378.5 188 L 380.5 191 L 388 196.5 L 378 204.5 Q 377.5 208.5 380.5 209 Q 392.4 216.1 401 226.5 L 409.5 238 Q 413.9 236.5 413 239.5 Q 392.8 287.3 356.5 319 Q 332.4 340.9 300.5 355 L 272.5 365 L 250.5 370 L 236 371.5 L 276 372.5 L 229.5 373 L 228.5 372 L 200.5 372 L 199.5 373 L 167.5 373 L 167.5 372 L 192 371.5 L 167.5 368 L 137.5 359 L 111.5 347 L 97 333.5 Q 69.9 303.1 56 259.5 L 49 225.5 L 48 186 Z " /><path fill="rgb(132,80,214)" stroke="rgb(132,80,214)" stroke-width="1" opacity="0.996078431372549" d="M 346.5 77 L 353 81.5 L 368 101 L 394 121.5 Q 395.3 127.8 391.5 129 Q 373.1 140.1 360 156.5 L 348.5 171 Q 343.8 170.8 342 167.5 Q 331.4 150.6 316.5 138 L 301 126.5 L 300 123.5 L 304.5 118 Q 320.4 108.4 332 94.5 L 344.5 78 L 346.5 77 Z " /><path fill="rgb(132,80,214)" stroke="rgb(132,80,214)" stroke-width="1" opacity="0.996078431372549" d="M 411.5 155 Q 415.5 154.5 416 157.5 L 427.5 172 L 445 185.5 Q 446 191 442.5 192 Q 431.2 198.7 423 208.5 L 414.5 220 L 411.5 221 L 393.5 200 L 380 189.5 L 379 187.5 L 381.5 184 Q 394.9 176.4 404 164.5 L 409 156 L 411.5 155 Z " /><path fill="rgb(132,80,214)" stroke="rgb(132,80,214)" stroke-width="1" opacity="0.996078431372549" d="M 139 428 L 359.5 428 L 360 431.5 L 376 494.5 L 377 504.5 L 372.5 511 L 370.5 512 L 128.5 512 L 123 507.5 L 122 498.5 L 139 428 Z " /><path fill="rgb(254,210,87)" stroke="rgb(254,210,87)" stroke-width="1" opacity="0.9921568627450981" d="M 132.5 372 L 141.5 372 L 142.5 373 L 355.5 373 L 356.5 372 L 365.5 372 Q 374.4 373.6 378 380.5 L 380 386.5 L 380 413.5 Q 378.8 421.3 373.5 425 L 367.5 428 L 130.5 428 L 122 422.5 L 119 416.5 L 119 383.5 L 125.5 375 L 132.5 372 Z " /></svg>